<svg xmlns="http://www.w3.org/2000/svg" viewBox="0 0 512 512">
  <defs>
    <linearGradient id="bg" x1="0%" y1="0%" x2="100%" y2="100%">
      <stop offset="0%" stop-color="#f59e0b"/>
      <stop offset="100%" stop-color="#9a3412"/>
    </linearGradient>
  </defs>
  <rect width="512" height="512" rx="128" fill="#f8f1e8"/>
  <rect x="48" y="48" width="416" height="416" rx="108" fill="url(#bg)"/>
  <path d="M156 144h200v36H202v50h126v36H202v102h-46V144z" fill="#fff8ef"/>
  <path d="M296 312c27 0 46-16 46-41 0-22-17-36-45-43-19-5-29-10-29-21 0-12 11-20 27-20 18 0 33 6 47 15v-37c-13-8-29-13-47-13-42 0-71 23-71 58 0 30 21 47 57 56 18 4 25 10 25 21 0 13-11 21-29 21-22 0-42-8-58-22v38c16 10 35 16 57 16z" fill="#fff8ef" opacity=".92"/>
</svg>
